<?xml version="1.0" encoding="utf-8"?>
<!-- Generator: Adobe Illustrator 21.1.0, SVG Export Plug-In . SVG Version: 6.00 Build 0)  -->
<svg version="1.1" xmlns="http://www.w3.org/2000/svg" xmlns:xlink="http://www.w3.org/1999/xlink" x="0px" y="0px"
	 viewBox="0 0 144 24" style="enable-background:new 0 0 144 24;" xml:space="preserve">
<style type="text/css">
	.st0{display:none;}
	.st1{display:inline;opacity:0.5;fill:#0066CC;}
	.st2{display:inline;fill:#555555;}
	.st3{display:inline;fill:#0066CC;}
	.st4{display:inline;fill:url(#SVGID_1_);}
	.st5{fill:#FFFFFF;}
</style>
<g id="Layer_2" class="st0">
	<rect class="st1" width="144" height="24"/>
</g>
<g id="Layer_3" class="st0">
	<rect class="st2" width="144" height="24"/>
	<rect x="48" class="st3" width="24" height="24"/>
	<linearGradient id="SVGID_1_" gradientUnits="userSpaceOnUse" x1="60" y1="0" x2="60" y2="24">
		<stop  offset="0" style="stop-color:#FFFFFF;stop-opacity:0.25"/>
		<stop  offset="1" style="stop-color:#FFFFFF;stop-opacity:0"/>
	</linearGradient>
	<rect x="48" class="st4" width="24" height="24"/>
</g>
<g id="Layer_1">
	<g>
		<rect x="6" y="17" class="st5" width="12" height="2"/>
	</g>
	<g>
		<rect x="6" y="14" class="st5" width="12" height="2"/>
	</g>
	<g>
		<rect x="6" y="11" class="st5" width="12" height="2"/>
	</g>
	<g>
		<rect x="6" y="8" class="st5" width="12" height="2"/>
	</g>
	<g>
		<rect x="6" y="5" class="st5" width="12" height="2"/>
	</g>
	<g>
		<rect x="30" y="17" class="st5" width="12" height="2"/>
	</g>
	<g>
		<rect x="30" y="14" class="st5" width="12" height="2"/>
	</g>
	<g>
		<rect x="30" y="11" class="st5" width="12" height="2"/>
	</g>
	<g>
		<rect x="30" y="8" class="st5" width="12" height="2"/>
	</g>
	<g>
		<rect x="30.5" y="5.5" class="st5" width="11" height="1"/>
		<polygon points="42,5 30,5 30,7 42,7 42,5 		"/>
	</g>
	<g>
		<rect x="54" y="17" class="st5" width="12" height="2"/>
	</g>
	<g>
		<rect x="54" y="14" class="st5" width="12" height="2"/>
	</g>
	<g>
		<rect x="54" y="11" class="st5" width="12" height="2"/>
	</g>
	<g>
		<rect x="54.5" y="8.5" class="st5" width="11" height="1"/>
		<polygon points="66,8 54,8 54,10 66,10 66,8 		"/>
	</g>
	<g>
		<rect x="54.5" y="5.5" class="st5" width="11" height="1"/>
		<polygon points="66,5 54,5 54,7 66,7 66,5 		"/>
	</g>
	<g>
		<rect x="78" y="17" class="st5" width="12" height="2"/>
	</g>
	<g>
		<rect x="78" y="14" class="st5" width="12" height="2"/>
	</g>
	<g>
		<rect x="78.5" y="11.5" class="st5" width="11" height="1"/>
		<polygon points="90,11 78,11 78,13 90,13 90,11 		"/>
	</g>
	<g>
		<rect x="78.5" y="8.5" class="st5" width="11" height="1"/>
		<polygon points="90,8 78,8 78,10 90,10 90,8 		"/>
	</g>
	<g>
		<rect x="78.5" y="5.5" class="st5" width="11" height="1"/>
		<polygon points="90,5 78,5 78,7 90,7 90,5 		"/>
	</g>
	<g>
		<rect x="102" y="17" class="st5" width="12" height="2"/>
	</g>
	<g>
		<rect x="102.5" y="14.5" class="st5" width="11" height="1"/>
		<polygon points="114,14 102,14 102,16 114,16 114,14 		"/>
	</g>
	<g>
		<rect x="102.5" y="11.5" class="st5" width="11" height="1"/>
		<polygon points="114,11 102,11 102,13 114,13 114,11 		"/>
	</g>
	<g>
		<rect x="102.5" y="8.5" class="st5" width="11" height="1"/>
		<polygon points="114,8 102,8 102,10 114,10 114,8 		"/>
	</g>
	<g>
		<rect x="102.5" y="5.5" class="st5" width="11" height="1"/>
		<polygon points="114,5 102,5 102,7 114,7 114,5 		"/>
	</g>
	<g>
		<rect x="126.5" y="17.5" class="st5" width="11" height="1"/>
		<polygon points="138,17 126,17 126,19 138,19 138,17 		"/>
	</g>
	<g>
		<rect x="126.5" y="14.5" class="st5" width="11" height="1"/>
		<polygon points="138,14 126,14 126,16 138,16 138,14 		"/>
	</g>
	<g>
		<rect x="126.5" y="11.5" class="st5" width="11" height="1"/>
		<polygon points="138,11 126,11 126,13 138,13 138,11 		"/>
	</g>
	<g>
		<rect x="126.5" y="8.5" class="st5" width="11" height="1"/>
		<polygon points="138,8 126,8 126,10 138,10 138,8 		"/>
	</g>
	<g>
		<rect x="126.5" y="5.5" class="st5" width="11" height="1"/>
		<polygon points="138,5 126,5 126,7 138,7 138,5 		"/>
	</g>
</g>
</svg>
