<?xml version="1.0" encoding="utf-8"?>
<!-- Generator: Adobe Illustrator 21.1.0, SVG Export Plug-In . SVG Version: 6.00 Build 0)  -->
<svg version="1.1" id="Layer_1" xmlns="http://www.w3.org/2000/svg" xmlns:xlink="http://www.w3.org/1999/xlink" x="0px" y="0px"
	 viewBox="0 0 96 24" style="enable-background:new 0 0 96 24;" xml:space="preserve">
<style type="text/css">
	.st0{fill:#FFFFFF;}
</style>
<g>
	<rect x="4" y="5" width="1" height="14"/>
</g>
<g>
	<rect x="7" y="5" width="1" height="14"/>
</g>
<g>
	<rect x="10" y="5" width="1" height="14"/>
</g>
<g>
	<rect x="13" y="5" class="st0" width="1" height="14"/>
</g>
<g>
	<rect x="16" y="5" class="st0" width="1" height="14"/>
</g>
<g>
	<rect x="19" y="5" class="st0" width="1" height="14"/>
</g>
<g>
	<polygon points="28,19 27,19 30,5 31,5 	"/>
</g>
<g>
	<polygon points="31,19 30,19 33,5 34,5 	"/>
</g>
<g>
	<polygon points="34,19 33,19 36,5 37,5 	"/>
</g>
<g>
	<polygon class="st0" points="37,19 36,19 39,5 40,5 	"/>
</g>
<g>
	<polygon class="st0" points="40,19 39,19 42,5 43,5 	"/>
</g>
<g>
	<polygon class="st0" points="43,19 42,19 45,5 46,5 	"/>
</g>
<g>
	<rect x="52" y="5" width="3" height="14"/>
</g>
<g>
	<rect x="56" y="5" width="3" height="14"/>
</g>
<g>
	<rect x="60" y="5" class="st0" width="3" height="14"/>
</g>
<g>
	<rect x="64" y="5" class="st0" width="3" height="14"/>
</g>
<g>
	<polygon points="78,19 75,19 78,5 81,5 	"/>
</g>
<g>
	<polygon points="82,19 79,19 82,5 85,5 	"/>
</g>
<g>
	<polygon class="st0" points="86,19 83,19 86,5 89,5 	"/>
</g>
<g>
	<polygon class="st0" points="90,19 87,19 90,5 93,5 	"/>
</g>
</svg>
